<?xml version="1.0" standalone="yes"?>

<svg version="1.1" viewBox="0.0 0.0 956.2073490813648 649.4015748031496" fill="none" stroke="none" stroke-linecap="square" stroke-miterlimit="10" xmlns="http://www.w3.org/2000/svg" xmlns:xlink="http://www.w3.org/1999/xlink"><clipPath id="p.0"><path d="m0 0l956.20734 0l0 649.40155l-956.20734 0l0 -649.40155z" clip-rule="nonzero"></path></clipPath><g clip-path="url(#p.0)"><path fill="#000000" fill-opacity="0.0" d="m0 0l956.20734 0l0 649.40155l-956.20734 0z" fill-rule="nonzero"></path><path fill="#cfe2f3" d="m49.062992 305.85828l96.18898 0l0 85.98425l-96.18898 0z" fill-rule="nonzero"></path><path stroke="#000000" stroke-width="1.0" stroke-linejoin="round" stroke-linecap="butt" d="m49.062992 305.85828l96.18898 0l0 85.98425l-96.18898 0z" fill-rule="nonzero"></path><path fill="#000000" d="m100.200455 365.9304l-3.796875 0l0 -24.421875q0 -3.046875 0.1875 -5.765625q-0.5 0.484375 -1.109375 1.03125q-0.609375 0.53125 -5.578125 4.5625l-2.0625 -2.671875l9.078125 -7.0l3.28125 0l0 34.265625z" fill-rule="nonzero"></path><path fill="#cfe2f3" d="m145.25197 305.85828l96.18898 0l0 85.98425l-96.18898 0z" fill-rule="nonzero"></path><path stroke="#000000" stroke-width="1.0" stroke-linejoin="round" stroke-linecap="butt" d="m145.25197 305.85828l96.18898 0l0 85.98425l-96.18898 0z" fill-rule="nonzero"></path><path fill="#000000" d="m204.49881 365.9304l-22.53125 0l0 -3.359375l9.03125 -9.0625q4.125 -4.171875 5.4375 -5.953125q1.3125 -1.78125 1.96875 -3.46875q0.65625 -1.6875 0.65625 -3.640625q0 -2.734375 -1.671875 -4.34375q-1.65625 -1.609375 -4.609375 -1.609375q-2.140625 0 -4.046875 0.703125q-1.90625 0.703125 -4.25 2.5625l-2.0625 -2.65625q4.734375 -3.9375 10.3125 -3.9375q4.828125 0 7.5625 2.484375q2.75 2.46875 2.75 6.640625q0 3.25 -1.828125 6.4375q-1.828125 3.1875 -6.84375 8.0625l-7.5 7.34375l0 0.1875l17.625 0l0 3.609375z" fill-rule="nonzero"></path><path fill="#b6d7a8" d="m241.44095 305.85828l96.188965 0l0 85.98425l-96.188965 0z" fill-rule="nonzero"></path><path stroke="#000000" stroke-width="1.0" stroke-linejoin="round" stroke-linecap="butt" d="m241.44095 305.85828l96.188965 0l0 85.98425l-96.188965 0z" fill-rule="nonzero"></path><path fill="#000000" d="m299.3909 339.72726q0 3.28125 -1.84375 5.375q-1.828125 2.078125 -5.203125 2.78125l0 0.1875q4.125 0.515625 6.109375 2.625q2.0 2.109375 2.0 5.53125q0 4.890625 -3.40625 7.53125q-3.390625 2.640625 -9.65625 2.640625q-2.71875 0 -4.984375 -0.421875q-2.25 -0.40625 -4.390625 -1.4375l0 -3.703125q2.234375 1.109375 4.75 1.6875q2.515625 0.5625 4.765625 0.5625q8.890625 0 8.890625 -6.953125q0 -6.234375 -9.796875 -6.234375l-3.375 0l0 -3.359375l3.421875 0q4.0 0 6.34375 -1.765625q2.34375 -1.765625 2.34375 -4.90625q0 -2.515625 -1.71875 -3.9375q-1.71875 -1.4375 -4.671875 -1.4375q-2.25 0 -4.25 0.609375q-1.984375 0.609375 -4.546875 2.25l-1.96875 -2.625q2.109375 -1.65625 4.859375 -2.609375q2.765625 -0.953125 5.8125 -0.953125q4.984375 0 7.75 2.296875q2.765625 2.28125 2.765625 6.265625z" fill-rule="nonzero"></path><path fill="#cfe2f3" d="m433.8189 305.8609l96.188965 0l0 85.98425l-96.188965 0z" fill-rule="nonzero"></path><path stroke="#000000" stroke-width="1.0" stroke-linejoin="round" stroke-linecap="butt" d="m433.8189 305.8609l96.188965 0l0 85.98425l-96.188965 0z" fill-rule="nonzero"></path><path fill="#000000" d="m474.87823 365.933l14.203125 -30.6875l-18.6875 0l0 -3.578125l22.8125 0l0 3.109375l-14.015625 31.15625l-4.3125 0z" fill-rule="nonzero"></path><path fill="#cfe2f3" d="m337.6299 305.85828l96.188995 0l0 85.98425l-96.188995 0z" fill-rule="nonzero"></path><path stroke="#000000" stroke-width="1.0" stroke-linejoin="round" stroke-linecap="butt" d="m337.6299 305.85828l96.188995 0l0 85.98425l-96.188995 0z" fill-rule="nonzero"></path><path fill="#000000" d="m385.06427 344.9929q5.40625 0 8.515625 2.6875q3.109375 2.6875 3.109375 7.34375q0 5.328125 -3.390625 8.359375q-3.390625 3.015625 -9.34375 3.015625q-5.78125 0 -8.828125 -1.859375l0 -3.75q1.640625 1.0625 4.078125 1.65625q2.4375 0.59375 4.796875 0.59375q4.125 0 6.40625 -1.9375q2.296875 -1.953125 2.296875 -5.625q0 -7.171875 -8.796875 -7.171875q-2.21875 0 -5.953125 0.671875l-2.015625 -1.28125l1.296875 -16.03125l17.03125 0l0 3.578125l-13.703125 0l-0.875 10.296875q2.703125 -0.546875 5.375 -0.546875z" fill-rule="nonzero"></path><path fill="#cfe2f3" d="m530.0079 305.8609l96.188965 0l0 85.98425l-96.188965 0z" fill-rule="nonzero"></path><path stroke="#000000" stroke-width="1.0" stroke-linejoin="round" stroke-linecap="butt" d="m530.0079 305.8609l96.188965 0l0 85.98425l-96.188965 0z" fill-rule="nonzero"></path><path fill="#000000" d="m589.2547 346.2924q0 20.109375 -15.5625 20.109375q-2.71875 0 -4.3125 -0.46875l0 -3.359375q1.875 0.609375 4.265625 0.609375q5.625 0 8.484375 -3.46875q2.875 -3.484375 3.140625 -10.6875l-0.28125 0q-1.296875 1.953125 -3.4375 2.96875q-2.125 1.015625 -4.796875 1.015625q-4.546875 0 -7.21875 -2.71875q-2.671875 -2.71875 -2.671875 -7.59375q0 -5.34375 2.984375 -8.4375q3.0 -3.09375 7.875 -3.09375q3.484375 0 6.09375 1.796875q2.625 1.796875 4.03125 5.234375q1.40625 3.421875 1.40625 8.09375zm-11.53125 -11.796875q-3.359375 0 -5.1875 2.15625q-1.828125 2.15625 -1.828125 6.0q0 3.375 1.6875 5.3125q1.6875 1.9375 5.140625 1.9375q2.125 0 3.921875 -0.859375q1.796875 -0.875 2.828125 -2.375q1.03125 -1.5 1.03125 -3.140625q0 -2.46875 -0.96875 -4.546875q-0.953125 -2.09375 -2.6875 -3.28125q-1.71875 -1.203125 -3.9375 -1.203125z" fill-rule="nonzero"></path><path fill="#cfe2f3" d="m626.19684 305.85828l96.188965 0l0 85.98425l-96.188965 0z" fill-rule="nonzero"></path><path stroke="#000000" stroke-width="1.0" stroke-linejoin="round" stroke-linecap="butt" d="m626.19684 305.85828l96.188965 0l0 85.98425l-96.188965 0z" fill-rule="nonzero"></path><path fill="#000000" d="m663.61163 365.9304l-3.796875 0l0 -24.421875q0 -3.046875 0.1875 -5.765625q-0.5 0.484375 -1.109375 1.03125q-0.609375 0.53125 -5.578125 4.5625l-2.0625 -2.671875l9.078125 -7.0l3.28125 0l0 34.265625zm34.257812 -26.203125q0 3.28125 -1.84375 5.375q-1.828125 2.078125 -5.203125 2.78125l0 0.1875q4.125 0.515625 6.109375 2.625q2.0 2.109375 2.0 5.53125q0 4.890625 -3.40625 7.53125q-3.390625 2.640625 -9.65625 2.640625q-2.71875 0 -4.984375 -0.421875q-2.25 -0.40625 -4.390625 -1.4375l0 -3.703125q2.234375 1.109375 4.75 1.6875q2.515625 0.5625 4.765625 0.5625q8.890625 0 8.890625 -6.953125q0 -6.234375 -9.796875 -6.234375l-3.375 0l0 -3.359375l3.421875 0q4.0 0 6.34375 -1.765625q2.34375 -1.765625 2.34375 -4.90625q0 -2.515625 -1.71875 -3.9375q-1.71875 -1.4375 -4.671875 -1.4375q-2.25 0 -4.25 0.609375q-1.984375 0.609375 -4.546875 2.25l-1.96875 -2.625q2.109375 -1.65625 4.859375 -2.609375q2.765625 -0.953125 5.8125 -0.953125q4.984375 0 7.75 2.296875q2.765625 2.28125 2.765625 6.265625z" fill-rule="nonzero"></path><path fill="#cfe2f3" d="m722.3858 305.85828l96.189026 0l0 85.98425l-96.189026 0z" fill-rule="nonzero"></path><path stroke="#000000" stroke-width="1.0" stroke-linejoin="round" stroke-linecap="butt" d="m722.3858 305.85828l96.189026 0l0 85.98425l-96.189026 0z" fill-rule="nonzero"></path><path fill="#000000" d="m759.80066 365.9304l-3.796875 0l0 -24.421875q0 -3.046875 0.1875 -5.765625q-0.5 0.484375 -1.109375 1.03125q-0.609375 0.53125 -5.578125 4.5625l-2.0625 -2.671875l9.078125 -7.0l3.28125 0l0 34.265625zm35.554688 -19.640625q0 20.109375 -15.5625 20.109375q-2.71875 0 -4.3125 -0.46875l0 -3.359375q1.875 0.609375 4.265625 0.609375q5.625 0 8.484375 -3.46875q2.875 -3.484375 3.140625 -10.6875l-0.28125 0q-1.296875 1.953125 -3.4375 2.96875q-2.125 1.015625 -4.796875 1.015625q-4.546875 0 -7.21875 -2.71875q-2.671875 -2.71875 -2.671875 -7.59375q0 -5.34375 2.984375 -8.4375q3.0 -3.09375 7.875 -3.09375q3.484375 0 6.09375 1.796875q2.625 1.796875 4.03125 5.234375q1.40625 3.421875 1.40625 8.09375zm-11.53125 -11.796875q-3.359375 0 -5.1875 2.15625q-1.828125 2.15625 -1.828125 6.0q0 3.375 1.6875 5.3125q1.6875 1.9375 5.140625 1.9375q2.125 0 3.921875 -0.859375q1.796875 -0.875 2.828125 -2.375q1.03125 -1.5 1.03125 -3.140625q0 -2.46875 -0.96875 -4.546875q-0.953125 -2.09375 -2.6875 -3.28125q-1.71875 -1.203125 -3.9375 -1.203125z" fill-rule="nonzero"></path><path fill="#cfe2f3" d="m818.5748 305.85828l96.188965 0l0 85.98425l-96.188965 0z" fill-rule="nonzero"></path><path stroke="#000000" stroke-width="1.0" stroke-linejoin="round" stroke-linecap="butt" d="m818.5748 305.85828l96.188965 0l0 85.98425l-96.188965 0z" fill-rule="nonzero"></path><path fill="#000000" d="m864.099 365.9304l-22.53125 0l0 -3.359375l9.03125 -9.0625q4.125 -4.171875 5.4375 -5.953125q1.3125 -1.78125 1.96875 -3.46875q0.65625 -1.6875 0.65625 -3.640625q0 -2.734375 -1.671875 -4.34375q-1.65625 -1.609375 -4.609375 -1.609375q-2.140625 0 -4.046875 0.703125q-1.90625 0.703125 -4.25 2.5625l-2.0625 -2.65625q4.734375 -3.9375 10.3125 -3.9375q4.828125 0 7.5625 2.484375q2.75 2.46875 2.75 6.640625q0 3.25 -1.828125 6.4375q-1.828125 3.1875 -6.84375 8.0625l-7.5 7.34375l0 0.1875l17.625 0l0 3.609375zm27.445312 0l-22.53125 0l0 -3.359375l9.03125 -9.0625q4.125 -4.171875 5.4375 -5.953125q1.3125 -1.78125 1.96875 -3.46875q0.65625 -1.6875 0.65625 -3.640625q0 -2.734375 -1.671875 -4.34375q-1.65625 -1.609375 -4.609375 -1.609375q-2.140625 0 -4.046875 0.703125q-1.90625 0.703125 -4.25 2.5625l-2.0625 -2.65625q4.734375 -3.9375 10.3125 -3.9375q4.828125 0 7.5625 2.484375q2.75 2.46875 2.75 6.640625q0 3.25 -1.828125 6.4375q-1.828125 3.1875 -6.84375 8.0625l-7.5 7.34375l0 0.1875l17.625 0l0 3.609375z" fill-rule="nonzero"></path><path fill="#000000" fill-opacity="0.0" d="m433.8084 28.72441l96.188965 0l0 44.944878l-96.188965 0z" fill-rule="nonzero"></path><path fill="#000000" d="m462.29938 49.811287q2.484375 0 3.953125 1.40625q1.46875 1.390625 1.46875 3.8125q0 2.875 -1.78125 4.421875q-1.765625 1.546875 -5.046875 1.546875q-2.859375 0 -4.625 -0.921875l0 -3.140625q0.921875 0.5 2.15625 0.8125q1.234375 0.3125 2.328125 0.3125q3.328125 0 3.328125 -2.71875q0 -2.59375 -3.4375 -2.59375q-0.625 0 -1.375 0.125q-0.75 0.125 -1.21875 0.265625l-1.4375 -0.78125l0.640625 -8.734375l9.296875 0l0 3.078125l-6.125 0l-0.3125 3.359375l0.40625 -0.078125q0.71875 -0.171875 1.78125 -0.171875z" fill-rule="nonzero"></path><path fill="#000000" d="m487.51422 57.920662l-11.265625 -4.9375l0 -1.15625l11.265625 -5.609375l0 1.75l-9.171875 4.34375l9.171875 3.84375l0 1.765625zm10.816406 2.84375l7.09375 -15.34375l-9.328125 0l0 -1.796875l11.390625 0l0 1.5625l-7.0 15.578125l-2.15625 0z" fill-rule="nonzero"></path><path fill="#000000" fill-opacity="0.0" d="m481.9029 73.66929l0 232.189" fill-rule="nonzero"></path><path stroke="#000000" stroke-width="1.0" stroke-linejoin="round" stroke-linecap="butt" stroke-dasharray="4.0,3.0" d="m481.9029 73.66929l0 232.189" fill-rule="nonzero"></path><path fill="#000000" fill-opacity="0.0" d="m433.8084 51.19685l-377.60632 0" fill-rule="nonzero"></path><path stroke="#000000" stroke-width="1.0" stroke-linejoin="round" stroke-linecap="butt" d="m433.8084 51.19685l-371.97803 0" fill-rule="evenodd"></path><path fill="#000000" stroke="#000000" stroke-width="1.0" stroke-linecap="butt" d="m61.830376 51.19685l-2.3782768 -1.665287l-2.3782768 1.665287l2.3782768 1.665287z" fill-rule="evenodd"></path><path fill="#000000" fill-opacity="0.0" d="m529.9974 51.19685l385.4173 0" fill-rule="nonzero"></path><path stroke="#000000" stroke-width="1.0" stroke-linejoin="round" stroke-linecap="butt" d="m529.9974 51.19685l379.78906 0" fill-rule="evenodd"></path><path fill="#000000" stroke="#000000" stroke-width="1.0" stroke-linecap="butt" d="m909.78644 51.19685l2.3782349 1.665287l2.378296 -1.665287l-2.378296 -1.665287z" fill-rule="evenodd"></path><path fill="#000000" fill-opacity="0.0" d="m458.77954 68.88714l-146.11026 39.149605" fill-rule="nonzero"></path><path stroke="#0000ff" stroke-width="2.0" stroke-linejoin="round" stroke-linecap="butt" d="m458.77954 68.88714l-134.51913 36.043823" fill-rule="evenodd"></path><path fill="#0000ff" stroke="#0000ff" stroke-width="2.0" stroke-linecap="butt" d="m323.40543 101.74005l-7.911957 5.5399704l9.621918 0.841835z" fill-rule="evenodd"></path><path fill="#000000" fill-opacity="0.0" d="m150.03937 106.15223l86.61418 0l0 39.149605l-86.61418 0z" fill-rule="nonzero"></path><path fill="#000000" d="m173.74294 127.239105q2.484375 0 3.953125 1.40625q1.46875 1.390625 1.46875 3.8125q0 2.875 -1.78125 4.421875q-1.765625 1.546875 -5.046875 1.546875q-2.859375 0 -4.625 -0.921875l0 -3.140625q0.921875 0.5 2.15625 0.8125q1.234375 0.3125 2.328125 0.3125q3.328125 0 3.328125 -2.71875q0 -2.59375 -3.4375 -2.59375q-0.625 0 -1.375 0.125q-0.75 0.125 -1.21875 0.265625l-1.4375 -0.78125l0.640625 -8.734375l9.296875 0l0 3.078125l-6.125 0l-0.3125 3.359375l0.40625 -0.078125q0.71875 -0.171875 1.78125 -0.171875z" fill-rule="nonzero"></path><path fill="#000000" d="m187.69215 133.58286l9.171875 -3.8125l-9.171875 -4.375l0 -1.75l11.265625 5.609375l0 1.15625l-11.265625 4.9375l0 -1.765625zm31.175781 4.609375l-11.265625 0l0 -1.671875l4.515625 -4.546875q2.0625 -2.078125 2.71875 -2.96875q0.65625 -0.890625 0.984375 -1.734375q0.328125 -0.84375 0.328125 -1.8125q0 -1.375 -0.84375 -2.171875q-0.828125 -0.8125 -2.296875 -0.8125q-1.0625 0 -2.03125 0.359375q-0.953125 0.34375 -2.125 1.265625l-1.03125 -1.3125q2.375 -1.96875 5.15625 -1.96875q2.421875 0 3.78125 1.234375q1.375 1.234375 1.375 3.3125q0 1.640625 -0.921875 3.234375q-0.90625 1.59375 -3.40625 4.03125l-3.75 3.65625l0 0.09375l8.8125 0l0 1.8125z" fill-rule="nonzero"></path><path fill="#000000" fill-opacity="0.0" d="m236.65355 125.727036l140.47243 0" fill-rule="nonzero"></path><path stroke="#000000" stroke-width="1.0" stroke-linejoin="round" stroke-linecap="butt" d="m236.65355 125.727036l134.84416 0" fill-rule="evenodd"></path><path fill="#000000" stroke="#000000" stroke-width="1.0" stroke-linecap="butt" d="m371.4977 125.727036l2.3782654 1.6652832l2.378296 -1.6652832l-2.378296 -1.6652908z" fill-rule="evenodd"></path><path fill="#000000" fill-opacity="0.0" d="m217.7559 142.49606l68.88188 37.039368" fill-rule="nonzero"></path><path stroke="#0000ff" stroke-width="2.0" stroke-linejoin="round" stroke-linecap="butt" d="m217.7559 142.49606l58.312973 31.356216" fill-rule="evenodd"></path><path fill="#0000ff" stroke="#0000ff" stroke-width="2.0" stroke-linecap="butt" d="m274.5044 176.7618l9.558289 1.3889313l-6.429291 -7.207947z" fill-rule="evenodd"></path><path fill="#000000" fill-opacity="0.0" d="m235.59842 177.78445l107.87402 0l0 37.039368l-107.87402 0z" fill-rule="nonzero"></path><path fill="#000000" d="m269.93192 198.87132q2.484375 0 3.953125 1.40625q1.46875 1.390625 1.46875 3.8125q0 2.875 -1.78125 4.421875q-1.765625 1.546875 -5.046875 1.546875q-2.859375 0 -4.625 -0.921875l0 -3.140625q0.921875 0.5 2.15625 0.8125q1.234375 0.3125 2.328125 0.3125q3.328125 0 3.328125 -2.71875q0 -2.59375 -3.4375 -2.59375q-0.625 0 -1.375 0.125q-0.75 0.125 -1.21875 0.265625l-1.4375 -0.78125l0.640625 -8.734375l9.296875 0l0 3.078125l-6.125 0l-0.3125 3.359375l0.40625 -0.078125q0.71875 -0.171875 1.78125 -0.171875z" fill-rule="nonzero"></path><path fill="#000000" d="m284.053 199.76195l0 -1.59375l10.90625 0l0 1.59375l-10.90625 0zm0 4.796875l0 -1.609375l10.90625 0l0 1.609375l-10.90625 0zm30.363281 -7.84375q0 1.640625 -0.921875 2.6875q-0.921875 1.046875 -2.609375 1.390625l0 0.09375q2.0625 0.265625 3.046875 1.328125q1.0 1.046875 1.0 2.75q0 2.453125 -1.703125 3.78125q-1.6875 1.3125 -4.8125 1.3125q-1.359375 0 -2.5 -0.203125q-1.125 -0.203125 -2.1875 -0.71875l0 -1.859375q1.109375 0.546875 2.359375 0.84375q1.265625 0.28125 2.390625 0.28125q4.4375 0 4.4375 -3.484375q0 -3.109375 -4.890625 -3.109375l-1.6875 0l0 -1.671875l1.703125 0q2.015625 0 3.1875 -0.890625q1.171875 -0.890625 1.171875 -2.453125q0 -1.25 -0.875 -1.96875q-0.859375 -0.71875 -2.328125 -0.71875q-1.125 0 -2.125 0.3125q-1.0 0.296875 -2.265625 1.125l-0.984375 -1.3125q1.046875 -0.84375 2.421875 -1.3125q1.375 -0.46875 2.90625 -0.46875q2.5 0 3.875 1.140625q1.390625 1.140625 1.390625 3.125z" fill-rule="nonzero"></path><path fill="#000000" fill-opacity="0.0" d="m235.59842 196.30414l-38.29921 0" fill-rule="nonzero"></path><path stroke="#000000" stroke-width="1.0" stroke-linejoin="round" stroke-linecap="butt" d="m235.59842 196.30414l-32.67093 0" fill-rule="evenodd"></path><path fill="#000000" stroke="#000000" stroke-width="1.0" stroke-linecap="butt" d="m202.92749 196.30414l-2.3782806 -1.6652985l-2.3782806 1.6652985l2.3782806 1.6652832z" fill-rule="evenodd"></path><path fill="#000000" fill-opacity="0.0" d="m343.47244 196.30414l39.905518 0" fill-rule="nonzero"></path><path stroke="#000000" stroke-width="1.0" stroke-linejoin="round" stroke-linecap="butt" d="m343.47244 196.30414l34.27722 0" fill-rule="evenodd"></path><path fill="#000000" stroke="#000000" stroke-width="1.0" stroke-linecap="butt" d="m377.74966 196.30414l2.378296 1.6652832l2.3782654 -1.6652832l-2.3782654 -1.6652985z" fill-rule="evenodd"></path><path fill="#000000" fill-opacity="0.0" d="m289.53543 225.38025l0 69.921265" fill-rule="nonzero"></path><path stroke="#38761d" stroke-width="2.0" stroke-linejoin="round" stroke-linecap="butt" d="m289.53543 225.38025l0 57.921265" fill-rule="evenodd"></path><path fill="#38761d" stroke="#38761d" stroke-width="2.0" stroke-linecap="butt" d="m286.23196 283.3015l3.3034668 9.076202l3.3034668 -9.076202z" fill-rule="evenodd"></path><path fill="#000000" fill-opacity="0.0" d="m289.53543 381.85303l0 77.73227" fill-rule="nonzero"></path><path stroke="#674ea7" stroke-width="2.0" stroke-linejoin="round" stroke-linecap="butt" d="m289.53543 381.85303l0 65.73227" fill-rule="evenodd"></path><path fill="#674ea7" stroke="#674ea7" stroke-width="2.0" stroke-linecap="butt" d="m286.23196 447.5853l3.3034668 9.076202l3.3034668 -9.076202z" fill-rule="evenodd"></path><path fill="#000000" fill-opacity="0.0" d="m184.00787 469.48557l211.05511 0l0 69.921234l-211.05511 0z" fill-rule="nonzero"></path><path fill="#000000" d="m199.05475 496.40555l-1.578125 0l0 -12.15625l-4.296875 0l0 -1.40625l10.15625 0l0 1.40625l-4.28125 0l0 12.15625zm12.867935 0l0 -6.578125q0 -1.25 -0.578125 -1.859375q-0.5625 -0.609375 -1.765625 -0.609375q-1.609375 0 -2.34375 0.875q-0.734375 0.875 -0.734375 2.859375l0 5.3125l-1.53125 0l0 -14.4375l1.53125 0l0 4.375q0 0.78125 -0.078125 1.296875l0.09375 0q0.453125 -0.71875 1.296875 -1.140625q0.84375 -0.421875 1.921875 -0.421875q1.859375 0 2.78125 0.890625q0.9375 0.875 0.9375 2.796875l0 6.640625l-1.53125 0zm8.778763 0.1875q-2.25 0 -3.5625 -1.375q-1.296875 -1.375 -1.296875 -3.8125q0 -2.453125 1.203125 -3.90625q1.21875 -1.453125 3.265625 -1.453125q1.90625 0 3.015625 1.265625q1.125 1.25 1.125 3.3125l0 0.96875l-7.015625 0q0.046875 1.796875 0.90625 2.734375q0.859375 0.921875 2.421875 0.921875q1.640625 0 3.25 -0.6875l0 1.375q-0.8125 0.34375 -1.546875 0.5q-0.734375 0.15625 -1.765625 0.15625zm-0.40625 -9.25q-1.234375 0 -1.96875 0.796875q-0.71875 0.796875 -0.84375 2.203125l5.3125 0q0 -1.453125 -0.65625 -2.21875q-0.640625 -0.78125 -1.84375 -0.78125zm14.719315 7.984375q0.40625 0 0.78125 -0.0625q0.390625 -0.0625 0.609375 -0.125l0 1.171875q-0.25 0.125 -0.75 0.203125q-0.484375 0.078125 -0.875 0.078125q-2.9375 0 -2.9375 -3.109375l0 -6.046875l-1.46875 0l0 -0.75l1.46875 -0.640625l0.640625 -2.171875l0.890625 0l0 2.359375l2.953125 0l0 1.203125l-2.953125 0l0 5.984375q0 0.921875 0.4375 1.421875q0.4375 0.484375 1.203125 0.484375zm9.554916 1.078125l-0.3125 -1.453125l-0.078125 0q-0.75 0.96875 -1.515625 1.3125q-0.75 0.328125 -1.890625 0.328125q-1.5 0 -2.359375 -0.78125q-0.859375 -0.78125 -0.859375 -2.21875q0 -3.078125 4.921875 -3.234375l1.734375 -0.046875l0 -0.625q0 -1.203125 -0.515625 -1.765625q-0.515625 -0.578125 -1.65625 -0.578125q-1.265625 0 -2.875 0.78125l-0.46875 -1.1875q0.75 -0.40625 1.640625 -0.625q0.90625 -0.234375 1.796875 -0.234375q1.828125 0 2.703125 0.8125q0.875 0.796875 0.875 2.578125l0 6.9375l-1.140625 0zm-3.484375 -1.078125q1.4375 0 2.25 -0.78125q0.828125 -0.796875 0.828125 -2.21875l0 -0.921875l-1.53125 0.0625q-1.84375 0.0625 -2.65625 0.578125q-0.8125 0.5 -0.8125 1.5625q0 0.84375 0.5 1.28125q0.515625 0.4375 1.421875 0.4375zm12.235092 -9.28125q0.6875 0 1.21875 0.109375l-0.203125 1.4375q-0.640625 -0.140625 -1.125 -0.140625q-1.234375 0 -2.109375 1.0q-0.875 1.0 -0.875 2.5l0 5.453125l-1.53125 0l0 -10.171875l1.265625 0l0.171875 1.890625l0.078125 0q0.5625 -1.0 1.359375 -1.53125q0.796875 -0.546875 1.75 -0.546875zm11.303055 0.1875l0 0.984375l-1.875 0.21875q0.25 0.328125 0.453125 0.859375q0.203125 0.515625 0.203125 1.171875q0 1.484375 -1.015625 2.375q-1.015625 0.890625 -2.796875 0.890625q-0.453125 0 -0.859375 -0.0625q-0.984375 0.515625 -0.984375 1.296875q0 0.421875 0.34375 0.625q0.34375 0.203125 1.1875 0.203125l1.796875 0q1.640625 0 2.53125 0.703125q0.890625 0.6875 0.890625 2.015625q0 1.6875 -1.359375 2.5625q-1.359375 0.890625 -3.953125 0.890625q-1.984375 0 -3.078125 -0.75q-1.0781403 -0.734375 -1.0781403 -2.09375q0 -0.921875 0.59375 -1.609375q0.59376526 -0.671875 1.6718903 -0.90625q-0.390625 -0.171875 -0.65625 -0.546875q-0.265625 -0.375 -0.265625 -0.859375q0 -0.5625 0.296875 -0.96875q0.296875 -0.421875 0.9375 -0.8125q-0.78125 -0.328125 -1.28125 -1.109375q-0.50001526 -0.78125 -0.50001526 -1.78125q0 -1.671875 1.0000153 -2.578125q1.0 -0.90625 2.84375 -0.90625q0.796875 0 1.4375 0.1875l3.515625 0zm-8.109375 11.875q0 0.828125 0.6875 1.25q0.703125 0.4375 2.0 0.4375q1.9375 0 2.875 -0.578125q0.9375 -0.578125 0.9375 -1.578125q0 -0.828125 -0.515625 -1.15625q-0.515625 -0.3125 -1.921875 -0.3125l-1.84375 0q-1.046875 0 -1.640625 0.5q-0.578125 0.5 -0.578125 1.4375zm0.84375 -8.609375q0 1.0625 0.59375 1.609375q0.609375 0.546875 1.6875 0.546875q2.25 0 2.25 -2.1875q0 -2.296875 -2.28125 -2.296875q-1.09375 0 -1.671875 0.59375q-0.578125 0.578125 -0.578125 1.734375zm13.455231 7.09375q-2.25 0 -3.5625 -1.375q-1.296875 -1.375 -1.296875 -3.8125q0 -2.453125 1.203125 -3.90625q1.21875 -1.453125 3.265625 -1.453125q1.90625 0 3.015625 1.265625q1.125 1.25 1.125 3.3125l0 0.96875l-7.015625 0q0.046875 1.796875 0.90625 2.734375q0.859375 0.921875 2.421875 0.921875q1.640625 0 3.25 -0.6875l0 1.375q-0.8125 0.34375 -1.546875 0.5q-0.734375 0.15625 -1.765625 0.15625zm-0.40625 -9.25q-1.234375 0 -1.96875 0.796875q-0.71875 0.796875 -0.84375 2.203125l5.3125 0q0 -1.453125 -0.65625 -2.21875q-0.640625 -0.78125 -1.84375 -0.78125zm9.873047 7.984375q0.40625 0 0.78125 -0.0625q0.390625 -0.0625 0.609375 -0.125l0 1.171875q-0.25 0.125 -0.75 0.203125q-0.484375 0.078125 -0.875 0.078125q-2.9375 0 -2.9375 -3.109375l0 -6.046875l-1.46875 0l0 -0.75l1.46875 -0.640625l0.640625 -2.171875l0.890625 0l0 2.359375l2.953125 0l0 1.203125l-2.953125 0l0 5.984375q0 0.921875 0.4375 1.421875q0.4375 0.484375 1.203125 0.484375zm10.369934 1.078125l-3.859375 -10.171875l1.65625 0l2.1875 6.03125q0.734375 2.125 0.875 2.75l0.0625 0q0.109375 -0.5 0.640625 -2.03125q0.546875 -1.546875 2.453125 -6.75l1.640625 0l-3.859375 10.171875l-1.796875 0zm13.377594 0l-0.3125 -1.453125l-0.078125 0q-0.75 0.96875 -1.515625 1.3125q-0.75 0.328125 -1.890625 0.328125q-1.5 0 -2.359375 -0.78125q-0.859375 -0.78125 -0.859375 -2.21875q0 -3.078125 4.921875 -3.234375l1.734375 -0.046875l0 -0.625q0 -1.203125 -0.515625 -1.765625q-0.515625 -0.578125 -1.65625 -0.578125q-1.265625 0 -2.875 0.78125l-0.46875 -1.1875q0.75 -0.40625 1.640625 -0.625q0.90625 -0.234375 1.796875 -0.234375q1.828125 0 2.703125 0.8125q0.875 0.796875 0.875 2.578125l0 6.9375l-1.140625 0zm-3.484375 -1.078125q1.4375 0 2.25 -0.78125q0.828125 -0.796875 0.828125 -2.21875l0 -0.921875l-1.53125 0.0625q-1.84375 0.0625 -2.65625 0.578125q-0.8125 0.5 -0.8125 1.5625q0 0.84375 0.5 1.28125q0.515625 0.4375 1.421875 0.4375zm9.141327 1.078125l-1.53125 0l0 -14.4375l1.53125 0l0 14.4375zm4.6249695 -10.171875l0 6.59375q0 1.25 0.5625 1.859375q0.578125 0.609375 1.78125 0.609375q1.59375 0 2.328125 -0.859375q0.734375 -0.875 0.734375 -2.859375l0 -5.34375l1.546875 0l0 10.171875l-1.265625 0l-0.234375 -1.359375l-0.078125 0q-0.46875 0.75 -1.3125 1.15625q-0.84375 0.390625 -1.921875 0.390625q-1.84375 0 -2.78125 -0.875q-0.921875 -0.890625 -0.921875 -2.828125l0 -6.65625l1.5625 0zm14.294403 10.359375q-2.25 0 -3.5625 -1.375q-1.296875 -1.375 -1.296875 -3.8125q0 -2.453125 1.203125 -3.90625q1.21875 -1.453125 3.265625 -1.453125q1.90625 0 3.015625 1.265625q1.125 1.25 1.125 3.3125l0 0.96875l-7.015625 0q0.046875 1.796875 0.90625 2.734375q0.859375 0.921875 2.421875 0.921875q1.640625 0 3.25 -0.6875l0 1.375q-0.8125 0.34375 -1.546875 0.5q-0.734375 0.15625 -1.765625 0.15625zm-0.40625 -9.25q-1.234375 0 -1.96875 0.796875q-0.71875 0.796875 -0.84375 2.203125l5.3125 0q0 -1.453125 -0.65625 -2.21875q-0.640625 -0.78125 -1.84375 -0.78125zm19.12555 -1.3125q0 1.296875 -0.734375 2.125q-0.71875 0.828125 -2.046875 1.109375l0 0.078125q1.625 0.203125 2.40625 1.03125q0.796875 0.828125 0.796875 2.1875q0 1.9375 -1.34375 2.984375q-1.34375 1.046875 -3.828125 1.046875q-1.078125 0 -1.96875 -0.171875q-0.890625 -0.15625 -1.734375 -0.5625l0 -1.46875q0.875 0.4375 1.875 0.671875q1.0 0.21875 1.890625 0.21875q3.515625 0 3.515625 -2.75q0 -2.46875 -3.875 -2.46875l-1.34375 0l0 -1.328125l1.359375 0q1.578125 0 2.5 -0.703125q0.9375 -0.703125 0.9375 -1.9375q0 -1.0 -0.6875 -1.5625q-0.671875 -0.5625 -1.84375 -0.5625q-0.890625 0 -1.6875 0.25q-0.78125 0.234375 -1.796875 0.875l-0.765625 -1.03125q0.828125 -0.65625 1.921875 -1.03125q1.09375 -0.390625 2.296875 -0.390625q1.96875 0 3.0625 0.90625q1.09375 0.90625 1.09375 2.484375zm9.357239 10.375l-1.53125 0l0 -10.171875l1.53125 0l0 10.171875zm-1.671875 -12.921875q0 -0.53125 0.25 -0.765625q0.265625 -0.25 0.65625 -0.25q0.375 0 0.640625 0.25q0.28125 0.25 0.28125 0.765625q0 0.515625 -0.28125 0.78125q-0.265625 0.25 -0.640625 0.25q-0.390625 0 -0.65625 -0.25q-0.25 -0.265625 -0.25 -0.78125zm11.4062195 10.140625q0 1.421875 -1.0625 2.203125q-1.046875 0.765625 -2.953125 0.765625q-2.03125 0 -3.15625 -0.640625l0 -1.4375q0.734375 0.375 1.5625 0.59375q0.84375 0.21875 1.625 0.21875q1.203125 0 1.84375 -0.390625q0.65625 -0.390625 0.65625 -1.171875q0 -0.59375 -0.515625 -1.015625q-0.515625 -0.421875 -2.0 -1.0q-1.421875 -0.53125 -2.03125 -0.921875q-0.59375 -0.390625 -0.890625 -0.890625q-0.28125 -0.515625 -0.28125 -1.203125q0 -1.25 1.0 -1.96875q1.015625 -0.71875 2.78125 -0.71875q1.640625 0 3.21875 0.671875l-0.546875 1.25q-1.53125 -0.625 -2.78125 -0.625q-1.09375 0 -1.65625 0.34375q-0.546875 0.34375 -0.546875 0.9375q0 0.421875 0.203125 0.703125q0.203125 0.28125 0.671875 0.546875q0.46875 0.265625 1.78125 0.75q1.8125 0.65625 2.4375 1.328125q0.640625 0.671875 0.640625 1.671875z" fill-rule="nonzero"></path><path fill="#000000" d="m197.92975 517.32745q0.40625 0 0.78125 -0.0625q0.390625 -0.0625 0.609375 -0.125l0 1.171875q-0.25 0.125 -0.75 0.203125q-0.484375 0.078125 -0.875 0.078125q-2.9375 0 -2.9375 -3.109375l0 -6.0469055l-1.46875 0l0 -0.75l1.46875 -0.640625l0.640625 -2.171875l0.890625 0l0 2.359375l2.953125 0l0 1.203125l-2.953125 0l0 5.9844055q0 0.921875 0.4375 1.421875q0.4375 0.484375 1.203125 0.484375zm10.258041 1.078125l0 -6.5781555q0 -1.25 -0.578125 -1.859375q-0.5625 -0.609375 -1.765625 -0.609375q-1.609375 0 -2.34375 0.875q-0.734375 0.875 -0.734375 2.8594055l0 5.3125l-1.53125 0l0 -14.4375305l1.53125 0l0 4.375q0 0.78125 -0.078125 1.296875l0.09375 0q0.453125 -0.71875 1.296875 -1.140625q0.84375 -0.421875 1.921875 -0.421875q1.859375 0 2.78125 0.890625q0.9375 0.875 0.9375 2.796875l0 6.6406555l-1.53125 0zm8.778763 0.1875q-2.25 0 -3.5625 -1.375q-1.296875 -1.375 -1.296875 -3.8125q0 -2.4531555 1.203125 -3.9062805q1.21875 -1.453125 3.265625 -1.453125q1.90625 0 3.015625 1.265625q1.125 1.25 1.125 3.3125305l0 0.96875l-7.015625 0q0.046875 1.796875 0.90625 2.734375q0.859375 0.921875 2.421875 0.921875q1.640625 0 3.25 -0.6875l0 1.375q-0.8125 0.34375 -1.546875 0.5q-0.734375 0.15625 -1.765625 0.15625zm-0.40625 -9.2500305q-1.234375 0 -1.96875 0.796875q-0.71875 0.796875 -0.84375 2.2031555l5.3125 0q0 -1.4531555 -0.65625 -2.2187805q-0.640625 -0.78125 -1.84375 -0.78125zm19.125565 -1.3125q0 1.296875 -0.734375 2.125q-0.71875 0.828125 -2.046875 1.109375l0 0.078125q1.625 0.203125 2.40625 1.0312805q0.796875 0.828125 0.796875 2.1875q0 1.9375 -1.34375 2.984375q-1.34375 1.046875 -3.828125 1.046875q-1.078125 0 -1.96875 -0.171875q-0.890625 -0.15625 -1.734375 -0.5625l0 -1.46875q0.875 0.4375 1.875 0.671875q1.0 0.21875 1.890625 0.21875q3.515625 0 3.515625 -2.75q0 -2.46875 -3.875 -2.46875l-1.34375 0l0 -1.3281555l1.359375 0q1.578125 0 2.5 -0.703125q0.9375 -0.703125 0.9375 -1.9375q0 -1.0 -0.6875 -1.5625q-0.671875 -0.5625 -1.84375 -0.5625q-0.890625 0 -1.6875 0.25q-0.78125 0.234375 -1.796875 0.875l-0.765625 -1.03125q0.828125 -0.65625 1.921875 -1.03125q1.09375 -0.390625 2.296875 -0.390625q1.96875 0 3.0625 0.90625q1.09375 0.90625 1.09375 2.484375zm7.604721 0.015625q0.6875 0 1.21875 0.109375l-0.203125 1.4375q-0.640625 -0.140625 -1.125 -0.140625q-1.234375 0 -2.109375 1.0q-0.875 1.0 -0.875 2.5000305l0 5.453125l-1.53125 0l0 -10.1719055l1.265625 0l0.171875 1.890625l0.078125 0q0.5625 -1.0 1.359375 -1.53125q0.796875 -0.546875 1.75 -0.546875zm9.89679 9.0000305l-0.078125 0q-1.0625 1.546875 -3.1875 1.546875q-2.0 0 -3.109375 -1.359375q-1.109375 -1.375 -1.109375 -3.890625q0 -2.5156555 1.109375 -3.9062805q1.125 -1.390625 3.109375 -1.390625q2.0625 0 3.171875 1.515625l0.125 0l-0.078125 -0.734375l-0.03125 -0.71875l0 -4.140625l1.546875 0l0 14.4375305l-1.25 0l-0.21875 -1.359375zm-3.078125 0.25q1.578125 0 2.28125 -0.859375q0.71875 -0.859375 0.71875 -2.765625l0 -0.328125q0 -2.1562805 -0.71875 -3.0781555q-0.71875 -0.921875 -2.296875 -0.921875q-1.359375 0 -2.078125 1.0625q-0.71875 1.046875 -0.71875 2.9687805q0 1.9375 0.71875 2.9375q0.71875 0.984375 2.09375 0.984375zm16.731812 1.296875q-2.25 0 -3.5625 -1.375q-1.296875 -1.375 -1.296875 -3.8125q0 -2.4531555 1.203125 -3.9062805q1.21875 -1.453125 3.265625 -1.453125q1.90625 0 3.015625 1.265625q1.125 1.25 1.125 3.3125305l0 0.96875l-7.015625 0q0.046875 1.796875 0.90625 2.734375q0.859375 0.921875 2.421875 0.921875q1.640625 0 3.25 -0.6875l0 1.375q-0.8125 0.34375 -1.546875 0.5q-0.734375 0.15625 -1.765625 0.15625zm-0.40625 -9.2500305q-1.234375 0 -1.96875 0.796875q-0.71875 0.796875 -0.84375 2.2031555l5.3125 0q0 -1.4531555 -0.65625 -2.2187805q-0.640625 -0.78125 -1.84375 -0.78125zm8.123047 9.0625305l-1.53125 0l0 -14.4375305l1.53125 0l0 14.4375305zm7.4687195 0.1875q-2.25 0 -3.5625 -1.375q-1.296875 -1.375 -1.296875 -3.8125q0 -2.4531555 1.203125 -3.9062805q1.21875 -1.453125 3.265625 -1.453125q1.90625 0 3.015625 1.265625q1.125 1.25 1.125 3.3125305l0 0.96875l-7.015625 0q0.046875 1.796875 0.90625 2.734375q0.859375 0.921875 2.421875 0.921875q1.640625 0 3.25 -0.6875l0 1.375q-0.8125 0.34375 -1.546875 0.5q-0.734375 0.15625 -1.765625 0.15625zm-0.40625 -9.2500305q-1.234375 0 -1.96875 0.796875q-0.71875 0.796875 -0.84375 2.2031555l5.3125 0q0 -1.4531555 -0.65625 -2.2187805q-0.640625 -0.78125 -1.84375 -0.78125zm19.544952 9.0625305l0 -6.6094055q0 -1.21875 -0.53125 -1.828125q-0.515625 -0.609375 -1.609375 -0.609375q-1.4375 0 -2.125 0.828125q-0.671875 0.828125 -0.671875 2.5469055l0 5.671875l-1.546875 0l0 -6.6094055q0 -1.21875 -0.53125 -1.828125q-0.515625 -0.609375 -1.609375 -0.609375q-1.453125 0 -2.125 0.875q-0.671875 0.859375 -0.671875 2.8437805l0 5.328125l-1.53125 0l0 -10.1719055l1.25 0l0.25 1.390625l0.0625 0q0.4375 -0.734375 1.234375 -1.15625q0.796875 -0.421875 1.78125 -0.421875q2.375 0 3.109375 1.734375l0.078125 0q0.453125 -0.796875 1.3125 -1.265625q0.875 -0.46875 1.96875 -0.46875q1.734375 0 2.59375 0.890625q0.859375 0.890625 0.859375 2.828125l0 6.6406555l-1.546875 0zm8.681702 0.1875q-2.25 0 -3.5625 -1.375q-1.296875 -1.375 -1.296875 -3.8125q0 -2.4531555 1.203125 -3.9062805q1.21875 -1.453125 3.265625 -1.453125q1.90625 0 3.015625 1.265625q1.125 1.25 1.125 3.3125305l0 0.96875l-7.015625 0q0.046875 1.796875 0.90625 2.734375q0.859375 0.921875 2.421875 0.921875q1.640625 0 3.25 -0.6875l0 1.375q-0.8125 0.34375 -1.546875 0.5q-0.734375 0.15625 -1.765625 0.15625zm-0.40625 -9.2500305q-1.234375 0 -1.96875 0.796875q-0.71875 0.796875 -0.84375 2.2031555l5.3125 0q0 -1.4531555 -0.65625 -2.2187805q-0.640625 -0.78125 -1.84375 -0.78125zm13.544952 9.0625305l0 -6.5781555q0 -1.25 -0.578125 -1.859375q-0.5625 -0.609375 -1.765625 -0.609375q-1.59375 0 -2.34375 0.875q-0.734375 0.859375 -0.734375 2.8437805l0 5.328125l-1.53125 0l0 -10.1719055l1.25 0l0.25 1.390625l0.0625 0q0.484375 -0.75 1.328125 -1.15625q0.859375 -0.421875 1.90625 -0.421875q1.84375 0 2.765625 0.890625q0.921875 0.890625 0.921875 2.828125l0 6.6406555l-1.53125 0zm7.7787476 -1.078125q0.40625 0 0.78125 -0.0625q0.390625 -0.0625 0.609375 -0.125l0 1.171875q-0.25 0.125 -0.75 0.203125q-0.484375 0.078125 -0.875 0.078125q-2.9375 0 -2.9375 -3.109375l0 -6.0469055l-1.46875 0l0 -0.75l1.46875 -0.640625l0.640625 -2.171875l0.890625 0l0 2.359375l2.953125 0l0 1.203125l-2.953125 0l0 5.9844055q0 0.921875 0.4375 1.421875q0.4375 0.484375 1.203125 0.484375zm16.91681 -4.015625q0 2.484375 -1.25 3.890625q-1.25 1.390625 -3.453125 1.390625q-1.375 0 -2.4375 -0.640625q-1.046875 -0.640625 -1.625 -1.828125q-0.578125 -1.203125 -0.578125 -2.8125q0 -2.4844055 1.234375 -3.8750305q1.25 -1.390625 3.46875 -1.390625q2.125 0 3.375 1.421875q1.265625 1.421875 1.265625 3.8437805zm-7.75 0q0 1.953125 0.78125 2.96875q0.78125 1.015625 2.296875 1.015625q1.515625 0 2.296875 -1.015625q0.78125 -1.015625 0.78125 -2.96875q0 -1.9375305 -0.78125 -2.9375305q-0.78125 -1.015625 -2.3125 -1.015625q-1.515625 0 -2.296875 1.0q-0.765625 0.984375 -0.765625 2.9531555zm14.830933 -3.8750305l-2.59375 0l0 8.9687805l-1.53125 0l0 -8.9687805l-1.828125 0l0 -0.703125l1.828125 -0.546875l0 -0.578125q0 -3.734375 3.265625 -3.734375q0.8125 0 1.890625 0.3125l-0.390625 1.234375q-0.890625 -0.28125 -1.53125 -0.28125q-0.859375 0 -1.28125 0.578125q-0.421875 0.578125 -0.421875 1.859375l0 0.65625l2.59375 0l0 1.203125z" fill-rule="nonzero"></path><path fill="#000000" d="m197.92975 539.32745q0.40625 0 0.78125 -0.0625q0.390625 -0.0625 0.609375 -0.125l0 1.171875q-0.25 0.125 -0.75 0.203125q-0.484375 0.078125 -0.875 0.078125q-2.9375 0 -2.9375 -3.109375l0 -6.046875l-1.46875 0l0 -0.75l1.46875 -0.640625l0.640625 -2.171875l0.890625 0l0 2.359375l2.953125 0l0 1.203125l-2.953125 0l0 5.984375q0 0.921875 0.4375 1.421875q0.4375 0.484375 1.203125 0.484375zm10.258041 1.078125l0 -6.578125q0 -1.25 -0.578125 -1.859375q-0.5625 -0.609375 -1.765625 -0.609375q-1.609375 0 -2.34375 0.875q-0.734375 0.875 -0.734375 2.859375l0 5.3125l-1.53125 0l0 -14.4375l1.53125 0l0 4.375q0 0.78125 -0.078125 1.296875l0.09375 0q0.453125 -0.71875 1.296875 -1.140625q0.84375 -0.421875 1.921875 -0.421875q1.859375 0 2.78125 0.890625q0.9375 0.875 0.9375 2.796875l0 6.640625l-1.53125 0zm8.778763 0.1875q-2.25 0 -3.5625 -1.375q-1.296875 -1.375 -1.296875 -3.8125q0 -2.453125 1.203125 -3.90625q1.21875 -1.453125 3.265625 -1.453125q1.90625 0 3.015625 1.265625q1.125 1.25 1.125 3.3125l0 0.96875l-7.015625 0q0.046875 1.796875 0.90625 2.734375q0.859375 0.921875 2.421875 0.921875q1.640625 0 3.25 -0.6875l0 1.375q-0.8125 0.34375 -1.546875 0.5q-0.734375 0.15625 -1.765625 0.15625zm-0.40625 -9.25q-1.234375 0 -1.96875 0.796875q-0.71875 0.796875 -0.84375 2.203125l5.3125 0q0 -1.453125 -0.65625 -2.21875q-0.640625 -0.78125 -1.84375 -0.78125zm17.688065 9.0625l-0.3125 -1.453125l-0.078125 0q-0.75 0.96875 -1.515625 1.3125q-0.75 0.328125 -1.890625 0.328125q-1.5 0 -2.359375 -0.78125q-0.859375 -0.78125 -0.859375 -2.21875q0 -3.078125 4.921875 -3.234375l1.734375 -0.046875l0 -0.625q0 -1.203125 -0.515625 -1.765625q-0.515625 -0.578125 -1.65625 -0.578125q-1.265625 0 -2.875 0.78125l-0.46875 -1.1875q0.75 -0.40625 1.640625 -0.625q0.90625 -0.234375 1.796875 -0.234375q1.828125 0 2.703125 0.8125q0.875 0.796875 0.875 2.578125l0 6.9375l-1.140625 0zm-3.484375 -1.078125q1.4375 0 2.25 -0.78125q0.828125 -0.796875 0.828125 -2.21875l0 -0.921875l-1.53125 0.0625q-1.84375 0.0625 -2.65625 0.578125q-0.8125 0.5 -0.8125 1.5625q0 0.84375 0.5 1.28125q0.515625 0.4375 1.421875 0.4375zm12.235092 -9.28125q0.6875 0 1.21875 0.109375l-0.203125 1.4375q-0.640625 -0.140625 -1.125 -0.140625q-1.234375 0 -2.109375 1.0q-0.875 1.0 -0.875 2.5l0 5.453125l-1.53125 0l0 -10.171875l1.265625 0l0.171875 1.890625l0.078125 0q0.5625 -1.0 1.359375 -1.53125q0.796875 -0.546875 1.75 -0.546875zm7.6155396 0q0.6875 0 1.21875 0.109375l-0.203125 1.4375q-0.640625 -0.140625 -1.125 -0.140625q-1.234375 0 -2.109375 1.0q-0.875 1.0 -0.875 2.5l0 5.453125l-1.53125 0l0 -10.171875l1.265625 0l0.171875 1.890625l0.078125 0q0.5625 -1.0 1.359375 -1.53125q0.796875 -0.546875 1.75 -0.546875zm9.24054 10.359375l-0.3125 -1.453125l-0.078125 0q-0.75 0.96875 -1.515625 1.3125q-0.75 0.328125 -1.890625 0.328125q-1.5 0 -2.359375 -0.78125q-0.859375 -0.78125 -0.859375 -2.21875q0 -3.078125 4.921875 -3.234375l1.734375 -0.046875l0 -0.625q0 -1.203125 -0.515625 -1.765625q-0.515625 -0.578125 -1.65625 -0.578125q-1.265625 0 -2.875 0.78125l-0.46875 -1.1875q0.75 -0.40625 1.640625 -0.625q0.90625 -0.234375 1.796875 -0.234375q1.828125 0 2.703125 0.8125q0.875 0.796875 0.875 2.578125l0 6.9375l-1.140625 0zm-3.484375 -1.078125q1.4375 0 2.25 -0.78125q0.828125 -0.796875 0.828125 -2.21875l0 -0.921875l-1.53125 0.0625q-1.84375 0.0625 -2.65625 0.578125q-0.8125 0.5 -0.8125 1.5625q0 0.84375 0.5 1.28125q0.515625 0.4375 1.421875 0.4375zm5.9851074 -9.09375l1.65625 0l2.21875 5.796875q0.734375 1.984375 0.921875 2.875l0.0625 0q0.125 -0.46875 0.5 -1.609375q0.390625 -1.15625 2.53125 -7.0625l1.65625 0l-4.375 11.578125q-0.65625 1.71875 -1.53125 2.4375q-0.859375 0.71875 -2.109375 0.71875q-0.71875 0 -1.390625 -0.15625l0 -1.234375q0.5 0.109375 1.140625 0.109375q1.578125 0 2.25 -1.78125l0.578125 -1.4375l-4.109375 -10.234375zm10.791626 9.1875q0 -0.625 0.28125 -0.9375q0.28125 -0.328125 0.8125 -0.328125q0.546875 0 0.84375 0.328125q0.296875 0.3125 0.296875 0.9375q0 0.609375 -0.3125 0.9375q-0.296875 0.3125 -0.828125 0.3125q-0.46875 0 -0.78125 -0.28125q-0.3125 -0.296875 -0.3125 -0.96875z" fill-rule="nonzero"></path><path fill="#000000" fill-opacity="0.0" d="m621.9265 94.91338l102.39368 0" fill-rule="nonzero"></path><path stroke="#000000" stroke-width="1.0" stroke-linejoin="round" stroke-linecap="butt" d="m627.5548 94.91338l91.137146 0" fill-rule="evenodd"></path><path fill="#000000" stroke="#000000" stroke-width="1.0" stroke-linecap="butt" d="m627.5548 94.91338l-2.378296 -1.6652832l-2.378296 1.6652832l2.378296 1.6652908z" fill-rule="evenodd"></path><path fill="#000000" stroke="#000000" stroke-width="1.0" stroke-linecap="butt" d="m718.69196 94.91338l2.3782349 1.6652908l2.378296 -1.6652908l-2.378296 -1.6652832z" fill-rule="evenodd"></path><path fill="#000000" fill-opacity="0.0" d="m733.71655 76.3937l216.66138 0l0 37.039368l-216.66138 0z" fill-rule="nonzero"></path><path fill="#000000" d="m756.4197 103.3137l-1.5625 0l-2.734375 -9.078125q-0.1875 -0.609375 -0.4375 -1.515625q-0.234375 -0.921875 -0.25 -1.109375q-0.203125 1.21875 -0.640625 2.671875l-2.65625 9.03125l-1.5625 0l-3.609375 -13.5625l1.671875 0l2.140625 8.375q0.453125 1.765625 0.65625 3.1875q0.25 -1.6875 0.734375 -3.3125l2.4375 -8.25l1.671875 0l2.546875 8.328125q0.4375 1.4375 0.75 3.234375q0.171875 -1.3125 0.671875 -3.203125l2.125 -8.359375l1.671875 0l-3.625 13.5625zm6.7403564 0l-1.53125 0l0 -10.171875l1.53125 0l0 10.171875zm-1.671875 -12.921875q0 -0.53125 0.25 -0.765625q0.265625 -0.25 0.65625 -0.25q0.375 0 0.640625 0.25q0.28125 0.25 0.28125 0.765625q0 0.515625 -0.28125 0.78125q-0.265625 0.25 -0.640625 0.25q-0.390625 0 -0.65625 -0.25q-0.25 -0.265625 -0.25 -0.78125zm11.765564 11.5625l-0.078125 0q-1.0625 1.546875 -3.1875 1.546875q-2.0 0 -3.109375 -1.359375q-1.109375 -1.375 -1.109375 -3.890625q0 -2.515625 1.109375 -3.90625q1.125 -1.390625 3.109375 -1.390625q2.0625 0 3.171875 1.515625l0.125 0l-0.078125 -0.734375l-0.03125 -0.71875l0 -4.140625l1.546875 0l0 14.4375l-1.25 0l-0.21875 -1.359375zm-3.078125 0.25q1.578125 0 2.28125 -0.859375q0.71875 -0.859375 0.71875 -2.765625l0 -0.328125q0 -2.15625 -0.71875 -3.078125q-0.71875 -0.921875 -2.296875 -0.921875q-1.359375 0 -2.078125 1.0625q-0.71875 1.046875 -0.71875 2.96875q0 1.9375 0.71875 2.9375q0.71875 0.984375 2.09375 0.984375zm10.885559 0.03125q0.40625 0 0.78125 -0.0625q0.390625 -0.0625 0.609375 -0.125l0 1.171875q-0.25 0.125 -0.75 0.203125q-0.484375 0.078125 -0.875 0.078125q-2.9375 0 -2.9375 -3.109375l0 -6.046875l-1.46875 0l0 -0.75l1.46875 -0.640625l0.640625 -2.171875l0.890625 0l0 2.359375l2.953125 0l0 1.203125l-2.953125 0l0 5.984375q0 0.921875 0.4375 1.421875q0.4375 0.484375 1.203125 0.484375zm10.258057 1.078125l0 -6.578125q0 -1.25 -0.578125 -1.859375q-0.5625 -0.609375 -1.765625 -0.609375q-1.609375 0 -2.34375 0.875q-0.734375 0.875 -0.734375 2.859375l0 5.3125l-1.53125 0l0 -14.4375l1.53125 0l0 4.375q0 0.78125 -0.078125 1.296875l0.09375 0q0.453125 -0.71875 1.296875 -1.140625q0.84375 -0.421875 1.921875 -0.421875q1.859375 0 2.78125 0.890625q0.9375 0.875 0.9375 2.796875l0 6.640625l-1.53125 0zm18.109375 -5.09375q0 2.484375 -1.25 3.890625q-1.25 1.390625 -3.453125 1.390625q-1.375 0 -2.4375 -0.640625q-1.046875 -0.640625 -1.625 -1.828125q-0.578125 -1.203125 -0.578125 -2.8125q0 -2.484375 1.234375 -3.875q1.25 -1.390625 3.46875 -1.390625q2.125 0 3.375 1.421875q1.265625 1.421875 1.265625 3.84375zm-7.75 0q0 1.953125 0.78125 2.96875q0.78125 1.015625 2.296875 1.015625q1.515625 0 2.296875 -1.015625q0.78125 -1.015625 0.78125 -2.96875q0 -1.9375 -0.78125 -2.9375q-0.78125 -1.015625 -2.3125 -1.015625q-1.515625 0 -2.296875 1.0q-0.765625 0.984375 -0.765625 2.953125zm14.830933 -3.875l-2.59375 0l0 8.96875l-1.53125 0l0 -8.96875l-1.828125 0l0 -0.703125l1.828125 -0.546875l0 -0.578125q0 -3.734375 3.265625 -3.734375q0.8125 0 1.890625 0.3125l-0.390625 1.234375q-0.890625 -0.28125 -1.53125 -0.28125q-0.859375 0 -1.28125 0.578125q-0.421875 0.578125 -0.421875 1.859375l0 0.65625l2.59375 0l0 1.203125zm13.137024 6.1875q0 1.421875 -1.0625 2.203125q-1.046875 0.765625 -2.953125 0.765625q-2.03125 0 -3.15625 -0.640625l0 -1.4375q0.734375 0.375 1.5625 0.59375q0.84375 0.21875 1.625 0.21875q1.203125 0 1.84375 -0.390625q0.65625 -0.390625 0.65625 -1.171875q0 -0.59375 -0.515625 -1.015625q-0.515625 -0.421875 -2.0 -1.0q-1.421875 -0.53125 -2.03125 -0.921875q-0.59375 -0.390625 -0.890625 -0.890625q-0.28125 -0.515625 -0.28125 -1.203125q0 -1.25 1.0 -1.96875q1.015625 -0.71875 2.78125 -0.71875q1.640625 0 3.21875 0.671875l-0.546875 1.25q-1.53125 -0.625 -2.78125 -0.625q-1.09375 0 -1.65625 0.34375q-0.546875 0.34375 -0.546875 0.9375q0 0.421875 0.203125 0.703125q0.203125 0.28125 0.671875 0.546875q0.46875 0.265625 1.78125 0.75q1.8125 0.65625 2.4375 1.328125q0.640625 0.671875 0.640625 1.671875zm6.6343384 2.96875q-2.25 0 -3.5625 -1.375q-1.296875 -1.375 -1.296875 -3.8125q0 -2.453125 1.203125 -3.90625q1.21875 -1.453125 3.265625 -1.453125q1.90625 0 3.015625 1.265625q1.125 1.25 1.125 3.3125l0 0.96875l-7.015625 0q0.046875 1.796875 0.90625 2.734375q0.859375 0.921875 2.421875 0.921875q1.640625 0 3.25 -0.6875l0 1.375q-0.8125 0.34375 -1.546875 0.5q-0.734375 0.15625 -1.765625 0.15625zm-0.40625 -9.25q-1.234375 0 -1.96875 0.796875q-0.71875 0.796875 -0.84375 2.203125l5.3125 0q0 -1.453125 -0.65625 -2.21875q-0.640625 -0.78125 -1.84375 -0.78125zm12.841797 9.0625l-0.3125 -1.453125l-0.078125 0q-0.75 0.96875 -1.515625 1.3125q-0.75 0.328125 -1.890625 0.328125q-1.5 0 -2.359375 -0.78125q-0.859375 -0.78125 -0.859375 -2.21875q0 -3.078125 4.921875 -3.234375l1.734375 -0.046875l0 -0.625q0 -1.203125 -0.515625 -1.765625q-0.515625 -0.578125 -1.65625 -0.578125q-1.265625 0 -2.875 0.78125l-0.46875 -1.1875q0.75 -0.40625 1.640625 -0.625q0.90625 -0.234375 1.796875 -0.234375q1.828125 0 2.703125 0.8125q0.875 0.796875 0.875 2.578125l0 6.9375l-1.140625 0zm-3.484375 -1.078125q1.4375 0 2.25 -0.78125q0.828125 -0.796875 0.828125 -2.21875l0 -0.921875l-1.53125 0.0625q-1.84375 0.0625 -2.65625 0.578125q-0.8125 0.5 -0.8125 1.5625q0 0.84375 0.5 1.28125q0.515625 0.4375 1.421875 0.4375zm12.235107 -9.28125q0.6875 0 1.21875 0.109375l-0.203125 1.4375q-0.640625 -0.140625 -1.125 -0.140625q-1.234375 0 -2.109375 1.0q-0.875 1.0 -0.875 2.5l0 5.453125l-1.53125 0l0 -10.171875l1.265625 0l0.171875 1.890625l0.078125 0q0.5625 -1.0 1.359375 -1.53125q0.796875 -0.546875 1.75 -0.546875zm7.0530396 10.546875q-2.21875 0 -3.4375 -1.359375q-1.203125 -1.359375 -1.203125 -3.84375q0 -2.5625 1.234375 -3.953125q1.234375 -1.390625 3.5 -1.390625q0.734375 0 1.46875 0.171875q0.734375 0.15625 1.15625 0.359375l-0.484375 1.3125q-0.5 -0.203125 -1.109375 -0.328125q-0.609375 -0.140625 -1.0625 -0.140625q-3.109375 0 -3.109375 3.953125q0 1.875 0.75 2.875q0.765625 1.0 2.25 1.0q1.28125 0 2.609375 -0.546875l0 1.359375q-1.015625 0.53125 -2.5625 0.53125zm11.7724 -0.1875l0 -6.578125q0 -1.25 -0.578125 -1.859375q-0.5625 -0.609375 -1.765625 -0.609375q-1.609375 0 -2.34375 0.875q-0.734375 0.875 -0.734375 2.859375l0 5.3125l-1.53125 0l0 -14.4375l1.53125 0l0 4.375q0 0.78125 -0.078125 1.296875l0.09375 0q0.453125 -0.71875 1.296875 -1.140625q0.84375 -0.421875 1.921875 -0.421875q1.859375 0 2.78125 0.890625q0.9375 0.875 0.9375 2.796875l0 6.640625l-1.53125 0zm15.890625 -2.78125q0 1.421875 -1.0625 2.203125q-1.046875 0.765625 -2.953125 0.765625q-2.03125 0 -3.15625 -0.640625l0 -1.4375q0.734375 0.375 1.5625 0.59375q0.84375 0.21875 1.625 0.21875q1.203125 0 1.84375 -0.390625q0.65625 -0.390625 0.65625 -1.171875q0 -0.59375 -0.515625 -1.015625q-0.515625 -0.421875 -2.0 -1.0q-1.421875 -0.53125 -2.03125 -0.921875q-0.59375 -0.390625 -0.890625 -0.890625q-0.28125 -0.515625 -0.28125 -1.203125q0 -1.25 1.0 -1.96875q1.015625 -0.71875 2.78125 -0.71875q1.640625 0 3.21875 0.671875l-0.546875 1.25q-1.53125 -0.625 -2.78125 -0.625q-1.09375 0 -1.65625 0.34375q-0.546875 0.34375 -0.546875 0.9375q0 0.421875 0.203125 0.703125q0.203125 0.28125 0.671875 0.546875q0.46875 0.265625 1.78125 0.75q1.8125 0.65625 2.4375 1.328125q0.640625 0.671875 0.640625 1.671875zm7.0718384 2.96875q-0.984375 0 -1.8125 -0.359375q-0.8125 -0.375 -1.375 -1.140625l-0.109375 0q0.109375 0.890625 0.109375 1.6875l0 4.1875l-1.53125 0l0 -14.734375l1.25 0l0.203125 1.390625l0.078125 0q0.59375 -0.828125 1.375 -1.203125q0.796875 -0.375 1.8125 -0.375q2.03125 0 3.125 1.390625q1.09375 1.375 1.09375 3.875q0 2.5 -1.125 3.890625q-1.109375 1.390625 -3.09375 1.390625zm-0.21875 -9.234375q-1.5625 0 -2.265625 0.875q-0.6875 0.859375 -0.703125 2.734375l0 0.34375q0 2.140625 0.71875 3.0625q0.71875 0.921875 2.28125 0.921875q1.328125 0 2.0625 -1.0625q0.75 -1.0625 0.75 -2.9375q0 -1.90625 -0.75 -2.921875q-0.734375 -1.015625 -2.09375 -1.015625zm13.182434 9.046875l-0.3125 -1.453125l-0.078125 0q-0.75 0.96875 -1.515625 1.3125q-0.75 0.328125 -1.890625 0.328125q-1.5 0 -2.359375 -0.78125q-0.859375 -0.78125 -0.859375 -2.21875q0 -3.078125 4.921875 -3.234375l1.734375 -0.046875l0 -0.625q0 -1.203125 -0.515625 -1.765625q-0.515625 -0.578125 -1.65625 -0.578125q-1.265625 0 -2.875 0.78125l-0.46875 -1.1875q0.75 -0.40625 1.640625 -0.625q0.90625 -0.234375 1.796875 -0.234375q1.828125 0 2.703125 0.8125q0.875 0.796875 0.875 2.578125l0 6.9375l-1.140625 0zm-3.484375 -1.078125q1.4375 0 2.25 -0.78125q0.828125 -0.796875 0.828125 -2.21875l0 -0.921875l-1.53125 0.0625q-1.84375 0.0625 -2.65625 0.578125q-0.8125 0.5 -0.8125 1.5625q0 0.84375 0.5 1.28125q0.515625 0.4375 1.421875 0.4375zm11.672607 1.265625q-2.21875 0 -3.4375 -1.359375q-1.203125 -1.359375 -1.203125 -3.84375q0 -2.5625 1.234375 -3.953125q1.234375 -1.390625 3.5 -1.390625q0.734375 0 1.46875 0.171875q0.734375 0.15625 1.15625 0.359375l-0.484375 1.3125q-0.5 -0.203125 -1.109375 -0.328125q-0.609375 -0.140625 -1.0625 -0.140625q-3.109375 0 -3.109375 3.953125q0 1.875 0.75 2.875q0.765625 1.0 2.25 1.0q1.28125 0 2.609375 -0.546875l0 1.359375q-1.015625 0.53125 -2.5625 0.53125zm9.100464 0q-2.25 0 -3.5625 -1.375q-1.296875 -1.375 -1.296875 -3.8125q0 -2.453125 1.203125 -3.90625q1.21875 -1.453125 3.265625 -1.453125q1.90625 0 3.015625 1.265625q1.125 1.25 1.125 3.3125l0 0.96875l-7.015625 0q0.046875 1.796875 0.90625 2.734375q0.859375 0.921875 2.421875 0.921875q1.640625 0 3.25 -0.6875l0 1.375q-0.8125 0.34375 -1.546875 0.5q-0.734375 0.15625 -1.765625 0.15625zm-0.40625 -9.25q-1.234375 0 -1.96875 0.796875q-0.71875 0.796875 -0.84375 2.203125l5.3125 0q0 -1.453125 -0.65625 -2.21875q-0.640625 -0.78125 -1.84375 -0.78125z" fill-rule="nonzero"></path><path fill="#000000" fill-opacity="0.0" d="m624.95276 124.884514l98.677185 0" fill-rule="nonzero"></path><path stroke="#000000" stroke-width="1.0" stroke-linejoin="round" stroke-linecap="butt" stroke-dasharray="4.0,3.0" d="m624.95276 124.884514l98.677185 0" fill-rule="nonzero"></path><path fill="#000000" fill-opacity="0.0" d="m733.71655 103.25459l180.47241 0l0 44.944885l-180.47241 0z" fill-rule="nonzero"></path><path fill="#000000" d="m750.59155 130.17459l-4.609375 -12.03125l-0.078125 0q0.140625 1.4375 0.140625 3.40625l0 8.625l-1.46875 0l0 -13.5625l2.375 0l4.296875 11.1875l0.078125 0l4.328125 -11.1875l2.359375 0l0 13.5625l-1.578125 0l0 -8.734375q0 -1.515625 0.125 -3.265625l-0.0625 0l-4.640625 12.0l-1.265625 0zm12.14032 0l-1.53125 0l0 -10.171875l1.53125 0l0 10.171875zm-1.671875 -12.921875q0 -0.53125 0.25 -0.765625q0.265625 -0.25 0.65625 -0.25q0.375 0 0.640625 0.25q0.28125 0.25 0.28125 0.765625q0 0.515625 -0.28125 0.78125q-0.265625 0.25 -0.640625 0.25q-0.390625 0 -0.65625 -0.25q-0.25 -0.265625 -0.25 -0.78125zm11.765564 11.5625l-0.078125 0q-1.0625 1.546875 -3.1875 1.546875q-2.0 0 -3.109375 -1.359375q-1.109375 -1.375 -1.109375 -3.890625q0 -2.515625 1.109375 -3.90625q1.125 -1.390625 3.109375 -1.390625q2.0625 0 3.171875 1.515625l0.125 0l-0.078125 -0.734375l-0.03125 -0.71875l0 -4.140625l1.546875 0l0 14.4375l-1.25 0l-0.21875 -1.359375zm-3.078125 0.25q1.578125 0 2.28125 -0.859375q0.71875 -0.859375 0.71875 -2.765625l0 -0.328125q0 -2.15625 -0.71875 -3.078125q-0.71875 -0.921875 -2.296875 -0.921875q-1.359375 0 -2.078125 1.0625q-0.71875 1.046875 -0.71875 2.96875q0 1.9375 0.71875 2.9375q0.71875 0.984375 2.09375 0.984375zm14.510559 -0.25l-0.078125 0q-1.0625 1.546875 -3.1875 1.546875q-2.0 0 -3.109375 -1.359375q-1.109375 -1.375 -1.109375 -3.890625q0 -2.515625 1.109375 -3.90625q1.125 -1.390625 3.109375 -1.390625q2.0625 0 3.171875 1.515625l0.125 0l-0.078125 -0.734375l-0.03125 -0.71875l0 -4.140625l1.546875 0l0 14.4375l-1.25 0l-0.21875 -1.359375zm-3.078125 0.25q1.578125 0 2.28125 -0.859375q0.71875 -0.859375 0.71875 -2.765625l0 -0.328125q0 -2.15625 -0.71875 -3.078125q-0.71875 -0.921875 -2.296875 -0.921875q-1.359375 0 -2.078125 1.0625q-0.71875 1.046875 -0.71875 2.96875q0 1.9375 0.71875 2.9375q0.71875 0.984375 2.09375 0.984375zm9.135559 1.109375l-1.53125 0l0 -14.4375l1.53125 0l0 14.4375zm7.468689 0.1875q-2.25 0 -3.5625 -1.375q-1.296875 -1.375 -1.296875 -3.8125q0 -2.453125 1.203125 -3.90625q1.21875 -1.453125 3.265625 -1.453125q1.90625 0 3.015625 1.265625q1.125 1.25 1.125 3.3125l0 0.96875l-7.015625 0q0.046875 1.796875 0.90625 2.734375q0.859375 0.921875 2.421875 0.921875q1.640625 0 3.25 -0.6875l0 1.375q-0.8125 0.34375 -1.546875 0.5q-0.734375 0.15625 -1.765625 0.15625zm-0.40625 -9.25q-1.234375 0 -1.96875 0.796875q-0.71875 0.796875 -0.84375 2.203125l5.3125 0q0 -1.453125 -0.65625 -2.21875q-0.640625 -0.78125 -1.84375 -0.78125zm15.71936 9.25q-2.25 0 -3.5625 -1.375q-1.296875 -1.375 -1.296875 -3.8125q0 -2.453125 1.203125 -3.90625q1.21875 -1.453125 3.265625 -1.453125q1.90625 0 3.015625 1.265625q1.125 1.25 1.125 3.3125l0 0.96875l-7.015625 0q0.046875 1.796875 0.90625 2.734375q0.859375 0.921875 2.421875 0.921875q1.640625 0 3.25 -0.6875l0 1.375q-0.8125 0.34375 -1.546875 0.5q-0.734375 0.15625 -1.765625 0.15625zm-0.40625 -9.25q-1.234375 0 -1.96875 0.796875q-0.71875 0.796875 -0.84375 2.203125l5.3125 0q0 -1.453125 -0.65625 -2.21875q-0.640625 -0.78125 -1.84375 -0.78125zm8.123047 9.0625l-1.53125 0l0 -14.4375l1.53125 0l0 14.4375zm7.468689 0.1875q-2.25 0 -3.5625 -1.375q-1.296875 -1.375 -1.296875 -3.8125q0 -2.453125 1.203125 -3.90625q1.21875 -1.453125 3.265625 -1.453125q1.90625 0 3.015625 1.265625q1.125 1.25 1.125 3.3125l0 0.96875l-7.015625 0q0.046875 1.796875 0.90625 2.734375q0.859375 0.921875 2.421875 0.921875q1.640625 0 3.25 -0.6875l0 1.375q-0.8125 0.34375 -1.546875 0.5q-0.734375 0.15625 -1.765625 0.15625zm-0.40625 -9.25q-1.234375 0 -1.96875 0.796875q-0.71875 0.796875 -0.84375 2.203125l5.3125 0q0 -1.453125 -0.65625 -2.21875q-0.640625 -0.78125 -1.84375 -0.78125zm19.544983 9.0625l0 -6.609375q0 -1.21875 -0.53125 -1.828125q-0.515625 -0.609375 -1.609375 -0.609375q-1.4375 0 -2.125 0.828125q-0.671875 0.828125 -0.671875 2.546875l0 5.671875l-1.546875 0l0 -6.609375q0 -1.21875 -0.53125 -1.828125q-0.515625 -0.609375 -1.609375 -0.609375q-1.453125 0 -2.125 0.875q-0.671875 0.859375 -0.671875 2.84375l0 5.328125l-1.53125 0l0 -10.171875l1.25 0l0.25 1.390625l0.0625 0q0.4375 -0.734375 1.234375 -1.15625q0.796875 -0.421875 1.78125 -0.421875q2.375 0 3.109375 1.734375l0.078125 0q0.453125 -0.796875 1.3125 -1.265625q0.875 -0.46875 1.96875 -0.46875q1.734375 0 2.59375 0.890625q0.859375 0.890625 0.859375 2.828125l0 6.640625l-1.546875 0zm8.681702 0.1875q-2.25 0 -3.5625 -1.375q-1.296875 -1.375 -1.296875 -3.8125q0 -2.453125 1.203125 -3.90625q1.21875 -1.453125 3.265625 -1.453125q1.90625 0 3.015625 1.265625q1.125 1.25 1.125 3.3125l0 0.96875l-7.015625 0q0.046875 1.796875 0.90625 2.734375q0.859375 0.921875 2.421875 0.921875q1.640625 0 3.25 -0.6875l0 1.375q-0.8125 0.34375 -1.546875 0.5q-0.734375 0.15625 -1.765625 0.15625zm-0.40625 -9.25q-1.234375 0 -1.96875 0.796875q-0.71875 0.796875 -0.84375 2.203125l5.3125 0q0 -1.453125 -0.65625 -2.21875q-0.640625 -0.78125 -1.84375 -0.78125zm13.544922 9.0625l0 -6.578125q0 -1.25 -0.578125 -1.859375q-0.5625 -0.609375 -1.765625 -0.609375q-1.59375 0 -2.34375 0.875q-0.734375 0.859375 -0.734375 2.84375l0 5.328125l-1.53125 0l0 -10.171875l1.25 0l0.25 1.390625l0.0625 0q0.484375 -0.75 1.328125 -1.15625q0.859375 -0.421875 1.90625 -0.421875q1.84375 0 2.765625 0.890625q0.921875 0.890625 0.921875 2.828125l0 6.640625l-1.53125 0zm7.7787476 -1.078125q0.40625 0 0.78125 -0.0625q0.390625 -0.0625 0.609375 -0.125l0 1.171875q-0.25 0.125 -0.75 0.203125q-0.484375 0.078125 -0.875 0.078125q-2.9375 0 -2.9375 -3.109375l0 -6.046875l-1.46875 0l0 -0.75l1.46875 -0.640625l0.640625 -2.171875l0.890625 0l0 2.359375l2.953125 0l0 1.203125l-2.953125 0l0 5.984375q0 0.921875 0.4375 1.421875q0.4375 0.484375 1.203125 0.484375zm16.91681 -4.015625q0 2.484375 -1.25 3.890625q-1.25 1.390625 -3.453125 1.390625q-1.375 0 -2.4375 -0.640625q-1.046875 -0.640625 -1.625 -1.828125q-0.578125 -1.203125 -0.578125 -2.8125q0 -2.484375 1.234375 -3.875q1.25 -1.390625 3.46875 -1.390625q2.125 0 3.375 1.421875q1.265625 1.421875 1.265625 3.84375zm-7.75 0q0 1.953125 0.78125 2.96875q0.78125 1.015625 2.296875 1.015625q1.515625 0 2.296875 -1.015625q0.78125 -1.015625 0.78125 -2.96875q0 -1.9375 -0.78125 -2.9375q-0.78125 -1.015625 -2.3125 -1.015625q-1.515625 0 -2.296875 1.0q-0.765625 0.984375 -0.765625 2.953125zm14.830933 -3.875l-2.59375 0l0 8.96875l-1.53125 0l0 -8.96875l-1.828125 0l0 -0.703125l1.828125 -0.546875l0 -0.578125q0 -3.734375 3.265625 -3.734375q0.8125 0 1.890625 0.3125l-0.390625 1.234375q-0.890625 -0.28125 -1.53125 -0.28125q-0.859375 0 -1.28125 0.578125q-0.421875 0.578125 -0.421875 1.859375l0 0.65625l2.59375 0l0 1.203125z" fill-rule="nonzero"></path><path fill="#000000" d="m750.90405 149.39334q0 1.421875 -1.0625 2.203125q-1.046875 0.765625 -2.953125 0.765625q-2.03125 0 -3.15625 -0.640625l0 -1.4375q0.734375 0.375 1.5625 0.59375q0.84375 0.21875 1.625 0.21875q1.203125 0 1.84375 -0.390625q0.65625 -0.390625 0.65625 -1.171875q0 -0.59375 -0.515625 -1.015625q-0.515625 -0.421875 -2.0 -1.0q-1.421875 -0.53125 -2.03125 -0.921875q-0.59375 -0.390625 -0.890625 -0.890625q-0.28125 -0.515625 -0.28125 -1.203125q0 -1.25 1.0 -1.96875q1.015625 -0.71875 2.78125 -0.71875q1.640625 0 3.21875 0.671875l-0.546875 1.25q-1.53125 -0.625 -2.78125 -0.625q-1.09375 0 -1.65625 0.34375q-0.546875 0.34375 -0.546875 0.9375q0 0.421875 0.203125 0.703125q0.203125 0.28125 0.671875 0.546875q0.46875 0.265625 1.78125 0.75q1.8125 0.65625 2.4375 1.328125q0.640625 0.671875 0.640625 1.671875zm6.6343384 2.96875q-2.25 0 -3.5625 -1.375q-1.296875 -1.375 -1.296875 -3.8125q0 -2.453125 1.203125 -3.90625q1.21875 -1.453125 3.265625 -1.453125q1.90625 0 3.015625 1.265625q1.125 1.25 1.125 3.3125l0 0.96875l-7.015625 0q0.046875 1.796875 0.90625 2.734375q0.859375 0.921875 2.421875 0.921875q1.640625 0 3.25 -0.6875l0 1.375q-0.8125 0.34375 -1.546875 0.5q-0.734375 0.15625 -1.765625 0.15625zm-0.40625 -9.25q-1.234375 0 -1.96875 0.796875q-0.71875 0.796875 -0.84375 2.203125l5.3125 0q0 -1.453125 -0.65625 -2.21875q-0.640625 -0.78125 -1.84375 -0.78125zm12.841797 9.0625l-0.3125 -1.453125l-0.078125 0q-0.75 0.96875 -1.515625 1.3125q-0.75 0.328125 -1.890625 0.328125q-1.5 0 -2.359375 -0.78125q-0.859375 -0.78125 -0.859375 -2.21875q0 -3.078125 4.921875 -3.234375l1.734375 -0.046875l0 -0.625q0 -1.203125 -0.515625 -1.765625q-0.515625 -0.578125 -1.65625 -0.578125q-1.265625 0 -2.875 0.78125l-0.46875 -1.1875q0.75 -0.40625 1.640625 -0.625q0.90625 -0.234375 1.796875 -0.234375q1.828125 0 2.703125 0.8125q0.875 0.796875 0.875 2.578125l0 6.9375l-1.140625 0zm-3.484375 -1.078125q1.4375 0 2.25 -0.78125q0.828125 -0.796875 0.828125 -2.21875l0 -0.921875l-1.53125 0.0625q-1.84375 0.0625 -2.65625 0.578125q-0.8125 0.5 -0.8125 1.5625q0 0.84375 0.5 1.28125q0.515625 0.4375 1.421875 0.4375zm12.235107 -9.28125q0.6875 0 1.21875 0.109375l-0.203125 1.4375q-0.640625 -0.140625 -1.125 -0.140625q-1.234375 0 -2.109375 1.0q-0.875 1.0 -0.875 2.5l0 5.453125l-1.53125 0l0 -10.171875l1.265625 0l0.171875 1.890625l0.078125 0q0.5625 -1.0 1.359375 -1.53125q0.796875 -0.546875 1.75 -0.546875zm7.0530396 10.546875q-2.21875 0 -3.4375 -1.359375q-1.203125 -1.359375 -1.203125 -3.84375q0 -2.5625 1.234375 -3.953125q1.234375 -1.390625 3.5 -1.390625q0.734375 0 1.46875 0.171875q0.734375 0.15625 1.15625 0.359375l-0.484375 1.3125q-0.5 -0.203125 -1.109375 -0.328125q-0.609375 -0.140625 -1.0625 -0.140625q-3.109375 0 -3.109375 3.953125q0 1.875 0.75 2.875q0.765625 1.0 2.25 1.0q1.28125 0 2.609375 -0.546875l0 1.359375q-1.015625 0.53125 -2.5625 0.53125zm11.7724 -0.1875l0 -6.578125q0 -1.25 -0.578125 -1.859375q-0.5625 -0.609375 -1.765625 -0.609375q-1.609375 0 -2.34375 0.875q-0.734375 0.875 -0.734375 2.859375l0 5.3125l-1.53125 0l0 -14.4375l1.53125 0l0 4.375q0 0.78125 -0.078125 1.296875l0.09375 0q0.453125 -0.71875 1.296875 -1.140625q0.84375 -0.421875 1.921875 -0.421875q1.859375 0 2.78125 0.890625q0.9375 0.875 0.9375 2.796875l0 6.640625l-1.53125 0zm15.890625 -2.78125q0 1.421875 -1.0625 2.203125q-1.046875 0.765625 -2.953125 0.765625q-2.03125 0 -3.15625 -0.640625l0 -1.4375q0.734375 0.375 1.5625 0.59375q0.84375 0.21875 1.625 0.21875q1.203125 0 1.84375 -0.390625q0.65625 -0.390625 0.65625 -1.171875q0 -0.59375 -0.515625 -1.015625q-0.515625 -0.421875 -2.0 -1.0q-1.421875 -0.53125 -2.03125 -0.921875q-0.59375 -0.390625 -0.890625 -0.890625q-0.28125 -0.515625 -0.28125 -1.203125q0 -1.25 1.0 -1.96875q1.015625 -0.71875 2.78125 -0.71875q1.640625 0 3.21875 0.671875l-0.546875 1.25q-1.53125 -0.625 -2.78125 -0.625q-1.09375 0 -1.65625 0.34375q-0.546875 0.34375 -0.546875 0.9375q0 0.421875 0.203125 0.703125q0.203125 0.28125 0.671875 0.546875q0.46875 0.265625 1.78125 0.75q1.8125 0.65625 2.4375 1.328125q0.640625 0.671875 0.640625 1.671875zm7.0718384 2.96875q-0.984375 0 -1.8125 -0.359375q-0.8125 -0.375 -1.375 -1.140625l-0.109375 0q0.109375 0.890625 0.109375 1.6875l0 4.1875l-1.53125 0l0 -14.734375l1.25 0l0.203125 1.390625l0.078125 0q0.59375 -0.828125 1.375 -1.203125q0.796875 -0.375 1.8125 -0.375q2.03125 0 3.125 1.390625q1.09375 1.375 1.09375 3.875q0 2.5 -1.125 3.890625q-1.109375 1.390625 -3.09375 1.390625zm-0.21875 -9.234375q-1.5625 0 -2.265625 0.875q-0.6875 0.859375 -0.703125 2.734375l0 0.34375q0 2.140625 0.71875 3.0625q0.71875 0.921875 2.28125 0.921875q1.328125 0 2.0625 -1.0625q0.75 -1.0625 0.75 -2.9375q0 -1.90625 -0.75 -2.921875q-0.734375 -1.015625 -2.09375 -1.015625zm13.182434 9.046875l-0.3125 -1.453125l-0.078125 0q-0.75 0.96875 -1.515625 1.3125q-0.75 0.328125 -1.890625 0.328125q-1.5 0 -2.359375 -0.78125q-0.859375 -0.78125 -0.859375 -2.21875q0 -3.078125 4.921875 -3.234375l1.734375 -0.046875l0 -0.625q0 -1.203125 -0.515625 -1.765625q-0.515625 -0.578125 -1.65625 -0.578125q-1.265625 0 -2.875 0.78125l-0.46875 -1.1875q0.75 -0.40625 1.640625 -0.625q0.90625 -0.234375 1.796875 -0.234375q1.828125 0 2.703125 0.8125q0.875 0.796875 0.875 2.578125l0 6.9375l-1.140625 0zm-3.484375 -1.078125q1.4375 0 2.25 -0.78125q0.828125 -0.796875 0.828125 -2.21875l0 -0.921875l-1.53125 0.0625q-1.84375 0.0625 -2.65625 0.578125q-0.8125 0.5 -0.8125 1.5625q0 0.84375 0.5 1.28125q0.515625 0.4375 1.421875 0.4375zm11.672607 1.265625q-2.21875 0 -3.4375 -1.359375q-1.203125 -1.359375 -1.203125 -3.84375q0 -2.5625 1.234375 -3.953125q1.234375 -1.390625 3.5 -1.390625q0.734375 0 1.46875 0.171875q0.734375 0.15625 1.15625 0.359375l-0.484375 1.3125q-0.5 -0.203125 -1.109375 -0.328125q-0.609375 -0.140625 -1.0625 -0.140625q-3.109375 0 -3.109375 3.953125q0 1.875 0.75 2.875q0.765625 1.0 2.25 1.0q1.28125 0 2.609375 -0.546875l0 1.359375q-1.015625 0.53125 -2.5625 0.53125zm9.100464 0q-2.25 0 -3.5625 -1.375q-1.296875 -1.375 -1.296875 -3.8125q0 -2.453125 1.203125 -3.90625q1.21875 -1.453125 3.265625 -1.453125q1.90625 0 3.015625 1.265625q1.125 1.25 1.125 3.3125l0 0.96875l-7.015625 0q0.046875 1.796875 0.90625 2.734375q0.859375 0.921875 2.421875 0.921875q1.640625 0 3.25 -0.6875l0 1.375q-0.8125 0.34375 -1.546875 0.5q-0.734375 0.15625 -1.765625 0.15625zm-0.40625 -9.25q-1.234375 0 -1.96875 0.796875q-0.71875 0.796875 -0.84375 2.203125l5.3125 0q0 -1.453125 -0.65625 -2.21875q-0.640625 -0.78125 -1.84375 -0.78125z" fill-rule="nonzero"></path><path fill="#000000" fill-opacity="0.0" d="m150.03937 125.727036l-93.85826 0" fill-rule="nonzero"></path><path stroke="#000000" stroke-width="1.0" stroke-linejoin="round" stroke-linecap="butt" d="m150.03937 125.727036l-88.22999 0" fill-rule="evenodd"></path><path fill="#000000" stroke="#000000" stroke-width="1.0" stroke-linecap="butt" d="m61.80938 125.727036l-2.3782768 -1.6652908l-2.3782768 1.6652908l2.3782768 1.6652832z" fill-rule="evenodd"></path><path fill="#000000" fill-opacity="0.0" d="m193.34645 142.48819l0 163.37009" fill-rule="nonzero"></path><path stroke="#000000" stroke-width="1.0" stroke-linejoin="round" stroke-linecap="butt" stroke-dasharray="4.0,3.0" d="m193.34645 142.48819l0 163.37009" fill-rule="nonzero"></path></g></svg>

